<svg xmlns="http://www.w3.org/2000/svg" viewBox="0 0 1280 320" width="1280" height="320">
  <defs>
    <linearGradient id="bg" x1="0" y1="0" x2="1280" y2="320" gradientUnits="userSpaceOnUse">
      <stop offset="0" stop-color="#090b12"/>
      <stop offset="1" stop-color="#0f1220"/>
    </linearGradient>
    <linearGradient id="grad" x1="0" y1="0" x2="1" y2="1">
      <stop offset="0" stop-color="#38bdf8"/>
      <stop offset="1" stop-color="#22c55e"/>
    </linearGradient>
    <radialGradient id="halo" cx="0.18" cy="0.5" r="0.45">
      <stop offset="0" stop-color="#38bdf8" stop-opacity=".35"/>
      <stop offset="1" stop-color="#38bdf8" stop-opacity="0"/>
    </radialGradient>
    <radialGradient id="halo2" cx="0.82" cy="0.55" r="0.45">
      <stop offset="0" stop-color="#22c55e" stop-opacity=".25"/>
      <stop offset="1" stop-color="#22c55e" stop-opacity="0"/>
    </radialGradient>
  </defs>

  <rect width="1280" height="320" fill="url(#bg)"/>
  <rect width="1280" height="320" fill="url(#halo)"/>
  <rect width="1280" height="320" fill="url(#halo2)"/>

  <g transform="translate(168 110)">
    <circle cx="50" cy="50" r="50" fill="url(#grad)"/>
    <circle cx="50" cy="50" r="38" fill="none" stroke="#0c0f1c" stroke-width="2.5" opacity=".3"/>
    <line x1="50" y1="50" x2="50" y2="22" stroke="#0c0f1c" stroke-width="5" stroke-linecap="round"/>
    <line x1="50" y1="50" x2="74" y2="50" stroke="#0c0f1c" stroke-width="3.5" stroke-linecap="round"/>
    <circle cx="50" cy="50" r="4.5" fill="#0c0f1c"/>
  </g>

  <g font-family="Inter, system-ui, sans-serif" fill="#dde1f5">
    <text x="320" y="170" font-size="78" font-weight="900" letter-spacing="-2.5">Tickwise</text>
    <text x="320" y="218" font-size="22" font-weight="500" fill="#9aa3c7" letter-spacing="-0.2">
      Privacy-first automatic time tracking — runs entirely on your machine.
    </text>
    <g transform="translate(320 246)">
      <rect width="160" height="28" rx="14" fill="#0f1220" stroke="#1a1e30"/>
      <text x="80" y="19" font-size="12" font-weight="600" fill="#22c55e" text-anchor="middle">100% LOCAL</text>
      <rect x="172" width="160" height="28" rx="14" fill="#0f1220" stroke="#1a1e30"/>
      <text x="252" y="19" font-size="12" font-weight="600" fill="#38bdf8" text-anchor="middle">NO LLM · NO API KEY</text>
      <rect x="344" width="120" height="28" rx="14" fill="#0f1220" stroke="#1a1e30"/>
      <text x="404" y="19" font-size="12" font-weight="600" fill="#7c6af7" text-anchor="middle">GPL v3</text>
    </g>
  </g>
</svg>
